<?xml version="1.0" standalone="no"?>
<!DOCTYPE svg PUBLIC "-//W3C//DTD SVG 20010904//EN"
 "http://www.w3.org/TR/2001/REC-SVG-20010904/DTD/svg10.dtd">
<svg version="1.0" xmlns="http://www.w3.org/2000/svg"
 width="500.000000pt" height="500.000000pt" viewBox="0 0 500.000000 500.000000"
 preserveAspectRatio="xMidYMid meet">

<g transform="translate(0.000000,500.000000) scale(0.100000,-0.100000)"
fill="#000000" stroke="none">
<path d="M1757 4343 c-17 -16 -6 -62 19 -82 22 -17 41 -21 100 -21 l74 0 0
-716 0 -715 -715 -1069 c-785 -1174 -757 -1127 -734 -1240 16 -77 85 -145 184
-180 l70 -25 1525 -3 c962 -2 1562 1 1625 7 187 19 296 70 343 161 28 53 26
122 -6 192 -10 24 -346 520 -746 1103 l-726 1059 2 711 3 710 70 5 c39 3 76 9
83 13 19 13 32 51 25 76 l-5 21 -592 0 c-326 0 -596 -3 -599 -7z m624 -1198
c-5 -37 -11 -69 -13 -70 -2 -2 -56 -22 -122 -44 -118 -41 -118 -41 -145 -22
-35 26 -76 70 -69 76 8 8 353 134 356 130 2 -2 -1 -34 -7 -70z m35 -197 c15
-40 37 -100 50 -132 13 -33 21 -63 17 -67 -10 -8 -215 -69 -234 -69 -12 0
-104 225 -104 255 0 10 196 83 227 84 11 1 24 -21 44 -71z m314 -583 c61 -184
110 -341 108 -349 -3 -15 -395 -366 -409 -366 -4 0 -20 39 -34 88 -15 48 -38
124 -52 170 l-25 82 20 48 c32 74 36 114 17 177 -18 63 -76 135 -125 155 -26
11 -33 23 -56 97 -14 47 -23 88 -19 91 8 9 425 140 447 141 13 1 40 -70 128
-334z m-633 110 c28 -73 28 -75 0 -75 -75 0 -180 -69 -219 -144 -30 -57 -31
-155 -1 -212 69 -130 224 -177 357 -109 27 14 50 24 51 23 5 -8 65 -181 65
-189 0 -5 -20 -19 -44 -31 l-44 -21 -46 21 c-25 12 -66 22 -90 22 -38 0 -48
-5 -71 -32 -25 -30 -27 -38 -23 -100 13 -178 174 -366 353 -413 74 -19 71 -19
93 5 13 14 149 57 468 149 247 71 452 127 456 125 13 -8 50 -136 42 -144 -5
-4 -181 -57 -392 -118 -211 -60 -385 -112 -388 -114 -7 -8 84 -416 98 -437 25
-40 87 -52 126 -25 20 14 22 24 22 100 l0 84 110 0 110 0 0 -100 0 -100 230 0
231 0 34 -76 c19 -42 35 -80 35 -85 0 -5 -480 -9 -1105 -9 -608 0 -1105 2
-1105 4 0 3 22 40 49 83 l48 78 226 3 225 2 49 143 c26 78 48 146 48 152 0 5
-26 24 -59 42 -273 154 -459 532 -443 901 6 140 23 208 81 327 53 108 123 188
214 248 70 46 160 88 177 83 5 -1 20 -29 32 -61z m91 -150 c160 -67 160 -283
0 -350 -100 -41 -214 3 -259 100 -72 155 96 317 259 250z m801 -337 l-2 -73
28 -5 c16 -3 28 -9 28 -15 0 -5 -14 -50 -29 -99 l-28 -88 -47 5 c-44 5 -49 4
-92 -36 -38 -35 -44 -45 -36 -60 18 -30 5 -41 -85 -72 -82 -28 -88 -29 -100
-12 -11 14 -29 17 -110 17 -60 0 -96 4 -94 10 4 13 550 499 561 500 5 0 7 -33
6 -72z m184 -144 c20 -3 39 -10 42 -14 5 -7 -12 -69 -33 -121 -10 -26 -11 -26
-60 -15 -28 6 -53 14 -57 18 -4 3 4 38 16 77 17 54 27 70 38 67 9 -3 33 -8 54
-12z m-308 -375 c9 -28 15 -52 14 -53 -2 -2 -39 -15 -82 -29 -56 -19 -79 -23
-82 -14 -19 52 -34 97 -32 98 1 0 34 11 72 24 39 12 75 23 82 24 6 1 19 -22
28 -50z m593 -526 l3 -53 -360 0 -361 0 0 55 0 55 358 -2 357 -3 3 -52z m-169
-128 c46 -24 55 -74 20 -119 -15 -19 -30 -26 -54 -26 -47 0 -64 8 -80 41 -21
40 -19 57 14 90 33 32 58 36 100 14z"/>
<path d="M2490 1992 c-49 -15 -66 -74 -32 -105 42 -38 112 -10 112 45 0 37
-46 71 -80 60z"/>
<path d="M1937 1424 c35 -15 63 -49 63 -77 0 -10 -14 -32 -30 -49 -26 -25 -36
-29 -63 -24 -78 15 -92 106 -22 144 16 9 17 11 3 12 -25 0 -58 -48 -58 -85 0
-37 46 -85 81 -85 64 0 112 65 88 121 -11 28 -60 61 -86 58 -4 0 6 -7 24 -15z"/>
<path d="M2365 1099 c-50 -11 -107 -57 -129 -103 -20 -42 -21 -128 -2 -165 31
-60 115 -111 181 -111 73 0 164 62 186 127 49 148 -81 287 -236 252z m135 -24
c29 -15 72 -60 89 -92 18 -34 13 -110 -9 -153 -11 -22 -39 -52 -62 -67 -34
-23 -53 -28 -104 -28 -53 0 -68 4 -105 30 -53 38 -79 86 -79 148 0 136 148
224 270 162z"/>
<path d="M2045 2215 c-36 -35 -35 -97 1 -130 57 -53 154 -15 154 61 0 46 -8
63 -41 79 -43 23 -86 19 -114 -10z m120 -10 c73 -72 -28 -178 -109 -114 -20
16 -26 29 -26 59 0 72 84 106 135 55z"/>
<path d="M1353 273 c570 -2 1504 -2 2075 0 570 1 103 2 -1038 2 -1141 0 -1608
-1 -1037 -2z"/>
</g>
</svg>
